<svg xmlns="http://www.w3.org/2000/svg"
     viewBox="-160 -203 320 320">
  <g fill="#000000">
    <path
      d="M -3.23349,-78.15334 42.16537,-102.64373 c 0,0 -10.72024,107.90832 -12.94109,134.03733 -2.91197,-1.05386 -33.55315,2.10331 -41.52852,1.83732 0.24661,-17.70485 9.07075,-111.38426 9.07075,-111.38426 z"
    />

    <path
      d="M 126.15946,0.63784 C 121.3206,1.31951 -65.45603,-97.11813 -65.45603,-97.11813 L -23.43856,-124.23611 c 59.48496,24.66385 175.13052,77.42453 177.33845,82.55411 2.20792,5.12958 -22.90157,41.63818 -27.74043,42.31985 z"
    />

    <path
      d="M -149.57851,-46.24304 C -145.44759,-52.03406 -13.3564,-123.89083 -8.26092,-124.18433 c 5.09548,-0.2935 52.48174,17.90232 50.3408,21.74114 C 39.93893,-98.60437 -116.63559,-7.02995 -123.31405,-6.63927 c -6.67847,0.39068 -29.9327,-32.9603 -26.26446,-39.60377 z"
    />

    <path
      d="M 29.22165,30.42121 c -3.00828,4.40067 -45.941,4.71052 -49.8345,2.15966 -8.965,-1.76092 -46.51165,-121.68785 -45.01593,-130.69818 0.24173,-4.64449 39.60995,-28.0158 42.17783,-27.12293 -1.64638,14.09207 44.19829,146.79168 52.6726,155.66145 z"
    />
  </g>
</svg>
