<?xml version="1.0" encoding="UTF-8" standalone="no"?>
<!-- Created with Inkscape (http://www.inkscape.org/) -->

<svg
   xmlns:dc="http://purl.org/dc/elements/1.1/"
   xmlns:cc="http://creativecommons.org/ns#"
   xmlns:rdf="http://www.w3.org/1999/02/22-rdf-syntax-ns#"
   xmlns:svg="http://www.w3.org/2000/svg"
   xmlns="http://www.w3.org/2000/svg"
   xmlns:sodipodi="http://sodipodi.sourceforge.net/DTD/sodipodi-0.dtd"
   xmlns:inkscape="http://www.inkscape.org/namespaces/inkscape"
   width="159.80911mm"
   height="131.08717mm"
   viewBox="0 0 159.80911 131.08717"
   version="1.1"
   id="svg8"
   inkscape:version="0.92.5 (2060ec1f9f, 2020-04-08)"
   sodipodi:docname="logo.svg">
  <defs
     id="defs2" />
  <sodipodi:namedview
     id="base"
     pagecolor="#ffffff"
     bordercolor="#666666"
     borderopacity="1.0"
     inkscape:pageopacity="0.0"
     inkscape:pageshadow="2"
     inkscape:zoom="0.98994949"
     inkscape:cx="-109.73977"
     inkscape:cy="269.21359"
     inkscape:document-units="px"
     inkscape:current-layer="g4569"
     showgrid="false"
     showborder="false"
     showguides="true"
     inkscape:window-width="2560"
     inkscape:window-height="1403"
     inkscape:window-x="0"
     inkscape:window-y="0"
     inkscape:window-maximized="1"
     fit-margin-top="0"
     fit-margin-left="0"
     fit-margin-right="0"
     fit-margin-bottom="0">
    <inkscape:grid
       type="xygrid"
       id="grid3735"
       originx="-25.114966"
       originy="-81.145081" />
  </sodipodi:namedview>
  <metadata
     id="metadata5">
    <rdf:RDF>
      <cc:Work
         rdf:about="">
        <dc:format>image/svg+xml</dc:format>
        <dc:type
           rdf:resource="http://purl.org/dc/dcmitype/StillImage" />
        <dc:title></dc:title>
      </cc:Work>
    </rdf:RDF>
  </metadata>
  <g
     style="display:inline"
     inkscape:label="Fill copy"
     id="g4569"
     inkscape:groupmode="layer"
     transform="translate(-25.114966,-84.767741)">
    <path
       sodipodi:nodetypes="ccccsccscsssssccsssscsccccscsssccscccccccccccccccccccccccccsscccccccsscsccssscsscccccccccccccccccccccc"
       inkscape:connector-curvature="0"
       id="path4567"
       d="m 83.395003,215.85202 -0.02692,-18.49836 2.238175,-7.33999 1.83394,-0.063 c 0,0 0.425315,-2.16023 -0.39343,-4.06986 -0.966517,-2.25429 -14.192866,-0.81312 -17.648899,-0.75302 -12.9861,0.22834 -17.042598,0.26081 -17.973873,0.14388 -7.399857,-0.92914 -15.36281,-6.44642 -20.451221,-14.16999 -3.857019,-5.85448 -5.849109,-12.50744 -5.857755,-19.56307 -0.0039,-3.19243 0.203237,-4.93581 0.920954,-7.75082 0.616152,-2.41665 1.238323,-4.08154 2.397097,-6.41447 1.646425,-3.31471 3.477882,-5.86057 6.152946,-8.55305 3.739876,-3.76422 8.156388,-6.48361 13.268479,-8.16982 2.765528,-0.9122 6.938145,-1.65191 9.318293,-1.65191 h 0.69107 l 0.71011,-1.77066 c 1.08421,-2.70349 2.63681,-5.98954 3.93932,-8.33751 8.00144,-14.423777 18.82413,-21.739036 34.94789,-23.62193 6.256631,-0.730633 13.163361,-0.657468 18.132761,0.192093 7.27593,1.243883 14.17072,4.353145 20.01996,9.028166 0.80849,0.646189 2.4338,2.140587 3.6118,3.320888 5.16444,5.174503 9.13117,11.332503 12.14262,18.850343 l 0.85649,2.13816 1.9181,0.0874 c 8.04387,0.36667 15.20095,3.38633 20.67378,8.72254 1.89964,1.8522 2.91896,3.06851 4.33359,5.17105 2.44352,3.63175 4.21852,7.91993 5.10263,12.32731 0.58814,2.93195 0.67005,3.87186 0.67116,7.70172 0.001,3.9103 -0.11065,5.01665 -0.80328,7.95127 -2.03432,8.61925 -7.63478,15.75333 -16.03365,20.42429 -2.66035,1.47953 -4.83377,2.94568 -7.84366,3.61893 -3.77488,0.84436 -4.40225,0.68159 -20.086,0.63705 -7.95236,-0.0226 -14.78249,-0.0973 -15.38842,-0.16841 -5.73053,-0.67226 -9.88991,-4.17502 -11.73071,-9.87886 -0.70226,-2.176 -0.64916,-2.65285 -0.64916,-2.65285 l -2.00984,0.0198 -2.41663,-7.43611 c 0,0 0.0874,-6.40223 0.0109,-18.65856 h 2.22533 l -1.6e-4,5.04358 h 1.97961 v -4.86645 h 1.96771 v 4.88415 h 1.97961 v -4.88415 h 1.63698 l 0.0172,4.90902 h 1.96771 v -4.83691 h 1.96797 v 4.81328 h 1.96766 l 0.005,-5.07437 h 2.18517 l 0.0422,18.92699 -2.12032,7.13968 c 0,0 -0.65665,0.15482 -1.91514,0.162 -0.0826,1.78827 0.66273,3.5801 3.04302,4.00597 1.75184,0.31344 23.0589,0.1086 30.43098,-0.29255 1.94926,-0.10607 3.41596,-0.0171 6.54811,-1.47159 5.51878,-2.56277 10.41821,-9.10187 12.72517,-16.0466 0.84991,-2.55849 1.05234,-3.84684 1.04804,-6.66972 -0.0108,-7.10378 -2.09298,-12.88891 -6.16793,-17.13747 -3.5604,-3.7121 -8.02474,-5.90581 -13.98201,-6.87054 -1.82957,-0.29629 -6.58822,-0.29884 -8.58215,-0.0333 -0.73499,0.0979 -1.13997,0.22857 -1.46802,-0.0104 -0.32111,-0.25576 -0.39558,-0.95767 -0.78309,-2.30213 -3.945,-13.68684 -10.14497,-22.56653 -19.36819,-27.739376 -6.98633,-3.918286 -16.83923,-5.456515 -26.253771,-4.098726 -15.84449,2.285131 -27.26552,12.870082 -34.15953,31.658882 0,0 -0.298909,1.42293 -1.077783,1.93231 -0.790928,0.51727 -2.609067,0.43157 -2.609067,0.43157 -4.50302,0.13507 -7.411941,0.59878 -10.859046,1.73101 -6.36601,2.09099 -10.950593,5.9147 -13.684416,11.41331 -2.252952,4.53142 -2.964273,10.53678 -1.881715,15.88645 1.264055,6.24656 4.87497,11.45398 10.544924,15.20719 2.598997,1.7204 6.245437,3.28103 8.85313,3.78903 1.730033,0.33702 5.302613,0.37565 13.272763,0.14352 11.56386,-0.33679 17.32856,-0.26607 20.576,0.25243 4.2255,0.67466 6.83117,2.58674 8.03152,5.89366 0.66708,1.83781 0.78087,2.96974 0.76103,7.571 l 2.438545,-0.009 2.154826,7.46703 0.0691,18.26248 -2.261617,0.009 -0.004,-5.10235 -1.994265,-0.006 -0.0029,4.89421 -1.992773,0.0297 -0.0344,-4.92591 -1.979567,-0.0163 -0.0065,4.92339 -1.618726,0.0264 -0.03779,-4.99601 -1.972726,0.002 -0.0098,4.91426 -1.987846,0.001 0.0032,-4.87629 -1.994434,0.0332 -0.03153,5.09162 z"
       style="display:inline;fill:#28bd54;fill-opacity:1;stroke:none;stroke-width:0.13363478" />
  </g>
</svg>
