<svg xmlns="http://www.w3.org/2000/svg" viewBox="0 0 24 24" fill="none" stroke="currentColor" stroke-width="2" stroke-linecap="round" stroke-linejoin="round" aria-hidden="true"><path d="M12 2C6.5 2 2 6.6 2 12.2c0 4.5 2.9 8.3 6.8 9.6.5.1.7-.2.7-.5v-1.7c-2.8.6-3.4-1.4-3.4-1.4-.4-1.2-1.1-1.5-1.1-1.5-.9-.6.1-.6.1-.6 1 .1 1.5 1 1.5 1 .9 1.6 2.3 1.1 2.9.9.1-.7.4-1.1.6-1.4-2.2-.3-4.6-1.1-4.6-5 0-1.1.4-2 .9-2.7-.1-.3-.4-1.3.1-2.7 0 0 .8-.3 2.7 1a9.3 9.3 0 015 0c1.9-1.3 2.7-1 2.7-1 .5 1.4.2 2.4.1 2.7.6.7.9 1.6.9 2.7 0 3.9-2.4 4.7-4.7 5 .4.3.7.9.7 1.9v2.8c0 .3.2.6.7.5a10.2 10.2 0 006.9-9.6C22 6.6 17.5 2 12 2z"/></svg>