<?xml version="1.0" encoding="UTF-8" standalone="no"?>
<!-- Created with Inkscape (http://www.inkscape.org/) -->

<svg
   width="1200"
   height="1200"
   viewBox="0 0 317.49999 317.5"
   version="1.1"
   id="svg5"
   xml:space="preserve"
   inkscape:version="1.2.2 (b0a8486541, 2022-12-01)"
   sodipodi:docname="logo-warm-inkscape.svg"
   xmlns:inkscape="http://www.inkscape.org/namespaces/inkscape"
   xmlns:sodipodi="http://sodipodi.sourceforge.net/DTD/sodipodi-0.dtd"
   xmlns="http://www.w3.org/2000/svg"
   xmlns:svg="http://www.w3.org/2000/svg"><sodipodi:namedview
     id="namedview7"
     pagecolor="#ffffff"
     bordercolor="#000000"
     borderopacity="0.25"
     inkscape:showpageshadow="2"
     inkscape:pageopacity="0.0"
     inkscape:pagecheckerboard="0"
     inkscape:deskcolor="#d1d1d1"
     inkscape:document-units="mm"
     showgrid="false"
     inkscape:zoom="0.5"
     inkscape:cx="272"
     inkscape:cy="655"
     inkscape:window-width="1452"
     inkscape:window-height="749"
     inkscape:window-x="576"
     inkscape:window-y="116"
     inkscape:window-maximized="0"
     inkscape:current-layer="layer3"
     showguides="true"><inkscape:grid
       type="xygrid"
       id="grid165"
       originx="-9.7642599"
       originy="-11.962235" /></sodipodi:namedview><defs
     id="defs2" /><g
     inkscape:groupmode="layer"
     id="layer3"
     inkscape:label="Layer 3"
     style="display:inline"
     transform="translate(-9.764261,-11.962235)"><g
       id="g5789"
       transform="translate(6.4771238,78.753315)"><path
         style="display:inline;fill:#c8a056;fill-opacity:1;stroke:#000000;stroke-width:0.529167;stroke-linecap:round;stroke-linejoin:round;stroke-dasharray:none;stroke-opacity:1;paint-order:normal"
         d="m 156.76651,58.34666 45.39886,-24.490387 c 0,0 -10.72024,107.908317 -12.94109,134.037327 -2.91197,-1.05386 -33.55315,2.10331 -41.52852,1.83732 0.24661,-17.70485 9.07075,-111.38426 9.07075,-111.38426 z"
         id="path1413"
         sodipodi:nodetypes="ccccc" /><path
         style="display:inline;fill:#d6b866;fill-opacity:1;stroke:#000000;stroke-width:0.529167;stroke-linecap:round;stroke-linejoin:round;stroke-dasharray:none;stroke-opacity:1"
         d="M 286.15946,137.13784 C 281.3206,137.81951 94.543967,39.38187 94.543967,39.38187 L 136.56144,12.263885 c 59.48496,24.66385 175.13052,77.424525 177.33845,82.554104 2.20792,5.129583 -22.90157,41.638181 -27.74043,42.319851 z"
         id="path1087"
         sodipodi:nodetypes="zcczz" /><path
         style="display:inline;fill:#44826f;fill-opacity:1;stroke:#000000;stroke-width:0.529167;stroke-linecap:round;stroke-linejoin:round;stroke-dasharray:none;stroke-opacity:1;paint-order:normal"
         d="M 10.421492,90.256959 C 14.552407,84.465944 146.6436,12.609168 151.73908,12.315672 c 5.09548,-0.293496 52.48174,17.902317 50.3408,21.741139 C 199.93893,37.895632 43.364414,129.47005 36.68595,129.86073 30.007485,130.25141 6.7527497,96.900434 10.421492,90.256959 Z"
         id="path1085"
         sodipodi:nodetypes="czczc" /><path
         style="display:inline;fill:#4f8f73;fill-opacity:1;stroke:#000000;stroke-width:0.529167;stroke-linecap:round;stroke-linejoin:round;stroke-dasharray:none;stroke-opacity:1"
         d="m 189.22165,167.92121 c -3.00828,4.40067 -45.941,4.71052 -49.8345,2.15966 -8.965,-1.76092 -46.511651,-121.687848 -45.015928,-130.698177 0.241732,-4.644486 39.609948,-28.015799 42.177828,-27.122929 -1.64638,14.092068 44.19829,146.791676 52.6726,155.661446 z"
         id="path1847"
         sodipodi:nodetypes="ccccc" /></g></g></svg>
